<svg xmlns="http://www.w3.org/2000/svg" width="1400" height="900" viewBox="0 0 1400 900" role="img" aria-labelledby="title desc">
  <title id="title">LMArena Historical Text-Style-Control Top 12, Overall, Published 2026-05-19</title>
  <desc id="desc">A horizontal bar chart of the top twelve rows from the LMArena/Arena historical dataset, text_style_control latest split, overall category, published 2026-05-19.</desc>
  <style>
    .bg{fill:#f7f5ef}
    .ink{fill:#151515;font-family:Arial,Helvetica,sans-serif}
    .muted{fill:#5e5a52;font-family:Arial,Helvetica,sans-serif}
    .tiny{font-size:20px}
    .small{font-size:24px}
    .label{font-size:26px;font-weight:700}
    .rank{font-size:22px;font-weight:700}
    .title{font-size:42px;font-weight:800}
    .subtitle{font-size:24px}
    .barA{fill:#216869}
    .barB{fill:#4f6d7a}
    .barC{fill:#8f5d46}
    .barD{fill:#6f5f90}
    .guide{stroke:#d8d2c5;stroke-width:2}
    .axis{stroke:#151515;stroke-width:2}
    .ci{stroke:#151515;stroke-width:3;stroke-linecap:round;opacity:.75}
  </style>
  <rect class="bg" width="1400" height="900"/>
  <text x="70" y="76" class="ink title">LMArena Historical Top 12</text>
  <text x="70" y="116" class="muted subtitle">text_style_control / latest / overall / published 2026-05-19. Source S-0080, snapshot SNAP-20260525-008.</text>
  <text x="70" y="154" class="muted tiny">Bars show rating relative to the top row. Error ticks show lower/upper rating bounds. This is not a live May 24 leaderboard screenshot.</text>
  <line x1="520" y1="190" x2="520" y2="780" class="axis"/>
  <line x1="520" y1="780" x2="1280" y2="780" class="axis"/>
  <line x1="900" y1="190" x2="900" y2="780" class="guide"/>
  <line x1="1280" y1="190" x2="1280" y2="780" class="guide"/>
  <text x="520" y="815" class="muted tiny">1478</text>
  <text x="880" y="815" class="muted tiny">1490</text>
  <text x="1244" y="815" class="muted tiny">1502</text>
  <text x="70" y="207" class="muted tiny">rank</text>
  <text x="138" y="207" class="muted tiny">model</text>
  <text x="1190" y="207" class="muted tiny">rating</text>
  <g transform="translate(0,230)">
    <text x="82" y="30" class="ink rank">1</text><text x="138" y="30" class="ink label">claude-opus-4-6-thinking</text><text x="430" y="30" class="muted small">anthropic</text><rect x="520" y="5" width="760" height="32" class="barA"/><line x1="1172" y1="21" x2="1280" y2="21" class="ci"/><text x="1295" y="30" class="ink small">1501.98</text>
    <text x="82" y="75" class="ink rank">2</text><text x="138" y="75" class="ink label">claude-opus-4-7-thinking</text><text x="430" y="75" class="muted small">anthropic</text><rect x="520" y="50" width="749" height="32" class="barA"/><line x1="1083" y1="66" x2="1272" y2="66" class="ci"/><text x="1295" y="75" class="ink small">1500.25</text>
    <text x="82" y="120" class="ink rank">3</text><text x="138" y="120" class="ink label">claude-opus-4-6</text><text x="430" y="120" class="muted small">anthropic</text><rect x="520" y="95" width="733" height="32" class="barA"/><line x1="1060" y1="111" x2="1202" y2="111" class="ci"/><text x="1295" y="120" class="ink small">1498.06</text>
    <text x="82" y="165" class="ink rank">4</text><text x="138" y="165" class="ink label">claude-opus-4-7</text><text x="430" y="165" class="muted small">anthropic</text><rect x="520" y="140" width="696" height="32" class="barA"/><line x1="944" y1="156" x2="1133" y2="156" class="ci"/><text x="1295" y="165" class="ink small">1492.39</text>
    <text x="82" y="210" class="ink rank">5</text><text x="138" y="210" class="ink label">muse-spark</text><text x="430" y="210" class="muted small">meta</text><rect x="520" y="185" width="677" height="32" class="barC"/><line x1="836" y1="201" x2="1037" y2="201" class="ci"/><text x="1295" y="210" class="ink small">1489.49</text>
    <text x="82" y="255" class="ink rank">6</text><text x="138" y="255" class="ink label">gemini-3.1-pro-preview</text><text x="430" y="255" class="muted small">google</text><rect x="520" y="230" width="669" height="32" class="barB"/><line x1="854" y1="246" x2="994" y2="246" class="ci"/><text x="1295" y="255" class="ink small">1488.18</text>
    <text x="82" y="300" class="ink rank">7</text><text x="138" y="300" class="ink label">gemini-3-pro</text><text x="430" y="300" class="muted small">google</text><rect x="520" y="275" width="653" height="32" class="barB"/><line x1="789" y1="291" x2="916" y2="291" class="ci"/><text x="1295" y="300" class="ink small">1485.82</text>
    <text x="82" y="345" class="ink rank">8</text><text x="138" y="345" class="ink label">gpt-5.5-high</text><text x="430" y="345" class="muted small">openai</text><rect x="520" y="320" width="624" height="32" class="barD"/><line x1="562" y1="336" x2="770" y2="336" class="ci"/><text x="1295" y="345" class="ink small">1481.32</text>
    <text x="82" y="390" class="ink rank">9</text><text x="138" y="390" class="ink label">gemini-3.5-flash</text><text x="430" y="390" class="muted small">google</text><rect x="520" y="365" width="616" height="32" class="barB"/><line x1="472" y1="381" x2="775" y2="381" class="ci"/><text x="1295" y="390" class="ink small">1480.04</text>
    <text x="70" y="435" class="ink rank">10</text><text x="138" y="435" class="ink label">gpt-5.4-high</text><text x="430" y="435" class="muted small">openai</text><rect x="520" y="410" width="613" height="32" class="barD"/><line x1="549" y1="426" x2="713" y2="426" class="ci"/><text x="1295" y="435" class="ink small">1479.60</text>
    <text x="70" y="480" class="ink rank">11</text><text x="138" y="480" class="ink label">gpt-5.5</text><text x="430" y="480" class="muted small">openai</text><rect x="520" y="455" width="603" height="32" class="barD"/><line x1="452" y1="471" x2="704" y2="471" class="ci"/><text x="1295" y="480" class="ink small">1477.99</text>
    <text x="70" y="525" class="ink rank">12</text><text x="138" y="525" class="ink label">grok-4.20-beta1</text><text x="430" y="525" class="muted small">xai</text><rect x="520" y="500" width="603" height="32" class="barC"/><line x1="500" y1="516" x2="657" y2="516" class="ci"/><text x="1295" y="525" class="ink small">1477.98</text>
  </g>
  <text x="70" y="858" class="muted tiny">Caption: Figure 13.x - historical LMArena/Arena text-style-control top rows. Source: S-0080; rows: data/lmarena_may19_chart_i0034.tsv. Caveat: dataset rows alone do not prove model release status, price, or task-specific superiority.</text>
</svg>
