<svg xmlns="http://www.w3.org/2000/svg" width="1200" height="760" viewBox="0 0 1200 760" role="img" aria-labelledby="title desc"><title id="title">LiveCodeBench names contamination</title><desc id="desc">Paraphrase-first source card for Chapters 13 and 20 showing benchmark contamination as an evaluation-design issue, not a live model ranking.</desc><style>.bg{fill:#f8f6ee}.ink{fill:#20242a}.muted{fill:#5f6872}.band{fill:#2d3445}.panel{fill:#fffdf7;stroke:#d8d2c5;stroke-width:2}.tab{fill:#eef0ff;stroke:#5b5ea6;stroke-width:2}.warn{fill:#fff0ec;stroke:#c2412d;stroke-width:2}.title{font-family:Arial,Helvetica,sans-serif;font-size:38px;font-weight:700}.label{font-family:Arial,Helvetica,sans-serif;font-size:23px;font-weight:700}.small{font-family:Arial,Helvetica,sans-serif;font-size:18px}.tiny{font-family:Arial,Helvetica,sans-serif;font-size:14px}</style><rect class="bg" width="1200" height="760"/><rect class="band" width="1200" height="46"/><text class="tiny" x="60" y="30" fill="#ffffff">SOURCE CARD / CHAPTERS 13 AND 20 / DIRECT QUOTE: NO</text><text class="title ink" x="60" y="95">LiveCodeBench names contamination</text><text class="small muted" x="60" y="132">The most useful benchmark line may be the warning before the leaderboard.</text><rect class="panel" x="70" y="185" width="1060" height="320" rx="8"/><rect class="tab" x="110" y="230" width="260" height="115" rx="8"/><text class="label ink" x="145" y="276">Task stream</text><text class="small muted" x="145" y="310">New problems</text><text class="small muted" x="145" y="336">matter.</text><rect class="tab" x="420" y="230" width="260" height="115" rx="8"/><text class="label ink" x="455" y="276">Contamination</text><text class="small muted" x="455" y="310">Training/test</text><text class="small muted" x="455" y="336">boundaries leak.</text><rect class="tab" x="730" y="230" width="260" height="115" rx="8"/><text class="label ink" x="765" y="276">Contract</text><text class="small muted" x="765" y="310">Version, date,</text><text class="small muted" x="765" y="336">scaffold, metric.</text><rect class="tab" x="110" y="388" width="880" height="78" rx="8"/><text class="small ink" x="145" y="434">Before scores impress, the reader should know what the test is defending against.</text><rect class="warn" x="70" y="555" width="1060" height="82" rx="8"/><text class="small ink" x="100" y="590">Blocker: best coder, productivity proof, current rank, and solved contamination.</text><text class="tiny muted" x="100" y="617">Source: S-0037. Paraphrase-only card; no benchmark examples or tables copied.</text></svg>
