<svg xmlns="http://www.w3.org/2000/svg" width="1600" height="900" viewBox="0 0 1600 900" role="img" aria-labelledby="title desc">
  <title id="title">Figure 6.1 - Alignment As A Product Stack</title>
  <desc id="desc">A sourced Chapter 6 diagram showing how pretraining, demonstrations, preference comparisons, reward modeling, reinforcement learning, constitutional AI, product policy, red teams, and evaluations shape assistant behavior with caveats.</desc>
  <rect width="1600" height="900" fill="#f7f4ee"/>
  <rect x="64" y="58" width="1472" height="784" rx="0" fill="#fffdfa" stroke="#c8c1b5" stroke-width="2"/>
  <text x="92" y="116" font-family="Inter, Arial, sans-serif" font-size="38" font-weight="700" fill="#1f2933">Figure 6.1 - Alignment As A Product Stack</text>
  <text x="92" y="154" font-family="Inter, Arial, sans-serif" font-size="20" fill="#52616f">Assistant behavior is built from layers: training signals, principle paths, product rules, and evaluation loops.</text>
  <defs>
    <marker id="arrow" markerWidth="13" markerHeight="13" refX="10" refY="4" orient="auto" markerUnits="strokeWidth">
      <path d="M0,0 L10,4 L0,8 Z" fill="#1f2933"/>
    </marker>
    <style>
      .label{font-family:Inter,Arial,sans-serif;font-size:22px;font-weight:700;fill:#1f2933}
      .sub{font-family:Inter,Arial,sans-serif;font-size:16px;fill:#52616f}
      .src{font-family:Inter,Arial,sans-serif;font-size:15px;font-weight:700;fill:#0f8b6f}
      .caveat{font-family:Inter,Arial,sans-serif;font-size:15px;fill:#c2412d}
      .small{font-family:Inter,Arial,sans-serif;font-size:14px;fill:#52616f}
    </style>
  </defs>

  <g>
    <rect x="112" y="248" width="190" height="106" rx="8" fill="#ffffff" stroke="#2563eb" stroke-width="3"/>
    <text x="137" y="285" class="label">Base model</text>
    <text x="137" y="313" class="sub">pretraining</text>
    <text x="137" y="338" class="src">S-0004</text>

    <rect x="365" y="214" width="210" height="104" rx="8" fill="#ffffff" stroke="#b7791f" stroke-width="3"/>
    <text x="391" y="251" class="label">Demonstrations</text>
    <text x="391" y="279" class="sub">supervised examples</text>
    <text x="391" y="303" class="src">S-0014; S-0074</text>

    <rect x="365" y="374" width="210" height="104" rx="8" fill="#ffffff" stroke="#b7791f" stroke-width="3"/>
    <text x="391" y="411" class="label">Comparisons</text>
    <text x="391" y="439" class="sub">ranked outputs</text>
    <text x="391" y="463" class="src">S-0014</text>

    <rect x="638" y="374" width="210" height="104" rx="8" fill="#ffffff" stroke="#0f8b6f" stroke-width="3"/>
    <text x="664" y="411" class="label">Reward model</text>
    <text x="664" y="439" class="sub">preference proxy</text>
    <text x="664" y="463" class="src">S-0014</text>

    <rect x="911" y="374" width="210" height="104" rx="8" fill="#ffffff" stroke="#0f8b6f" stroke-width="3"/>
    <text x="937" y="411" class="label">RL optimize</text>
    <text x="937" y="439" class="sub">assistant policy</text>
    <text x="937" y="463" class="src">S-0014</text>

    <rect x="638" y="214" width="230" height="104" rx="8" fill="#ffffff" stroke="#6d5bd0" stroke-width="3"/>
    <text x="664" y="251" class="label">Constitutional</text>
    <text x="664" y="279" class="sub">principles + RLAIF path</text>
    <text x="664" y="303" class="src">S-0019</text>

    <rect x="911" y="214" width="210" height="104" rx="8" fill="#ffffff" stroke="#6d5bd0" stroke-width="3"/>
    <text x="937" y="251" class="label">Behavior spec</text>
    <text x="937" y="279" class="sub">policy + hierarchy</text>
    <text x="937" y="303" class="src">S-0075</text>

    <rect x="1184" y="294" width="220" height="116" rx="8" fill="#ffffff" stroke="#c2412d" stroke-width="3"/>
    <text x="1210" y="331" class="label">Assistant</text>
    <text x="1210" y="359" class="sub">one voice, many layers</text>
    <text x="1210" y="384" class="src">S-0006; S-0075</text>
  </g>

  <path d="M302 301 H365" stroke="#1f2933" stroke-width="3" fill="none" marker-end="url(#arrow)"/>
  <path d="M302 301 C335 420 338 426 365 426" stroke="#1f2933" stroke-width="3" fill="none" marker-end="url(#arrow)"/>
  <path d="M575 426 H638" stroke="#1f2933" stroke-width="3" fill="none" marker-end="url(#arrow)"/>
  <path d="M848 426 H911" stroke="#1f2933" stroke-width="3" fill="none" marker-end="url(#arrow)"/>
  <path d="M1121 426 C1160 426 1160 352 1184 352" stroke="#1f2933" stroke-width="3" fill="none" marker-end="url(#arrow)"/>
  <path d="M868 266 H911" stroke="#1f2933" stroke-width="3" fill="none" marker-end="url(#arrow)"/>
  <path d="M1121 266 C1160 266 1160 352 1184 352" stroke="#1f2933" stroke-width="3" fill="none" marker-end="url(#arrow)"/>

  <rect x="206" y="584" width="1030" height="108" rx="8" fill="#ffffff" stroke="#c8c1b5" stroke-width="2"/>
  <text x="234" y="624" class="label">Red teams, system cards, evals, deployment observation</text>
  <text x="234" y="655" class="sub">The loop widens after release: probe failures, document risks, patch behavior, update specs, test again.</text>
  <text x="234" y="680" class="src">S-0005; S-0076; S-0077</text>
  <path d="M1294 410 C1370 555 1280 646 1236 646" stroke="#1f2933" stroke-width="3" fill="none" stroke-dasharray="9 8" marker-end="url(#arrow)"/>
  <path d="M206 646 C128 650 128 360 183 354" stroke="#1f2933" stroke-width="3" fill="none" stroke-dasharray="9 8" marker-end="url(#arrow)"/>

  <rect x="92" y="742" width="1416" height="68" fill="#f7f4ee" stroke="#e0d8cc" stroke-width="1"/>
  <text x="112" y="772" class="caveat">Caveat: this diagram explains product shaping, not solved alignment. Reward models are proxies; principles and policies are institutional choices; evals are partial.</text>
  <text x="112" y="798" class="small">Companion data: data/rlhf_alignment_pipeline_i0023.tsv. Direct quotations and exact policy wording still require source snapshots before final prose.</text>
</svg>
