<svg xmlns="http://www.w3.org/2000/svg" width="1400" height="760" viewBox="0 0 1400 760" role="img" aria-labelledby="title desc"> <title id="title">ChatGPT: From Interface Event To Business Surface</title> <desc id="desc">A sourced Chapter 7 chronology showing ChatGPT launch, Plus, plugins, Enterprise release-note entry, GPTs, and GPT-4o with blocked adoption and productivity lanes.</desc> <style>.bg{fill:#f7f5ef}.ink{fill:#151515;font-family:Arial,Helvetica,sans-serif}.muted{fill:#5e5a52;font-family:Arial,Helvetica,sans-serif}.title{font-size:38px;font-weight:800}.subtitle{font-size:21px}.label{font-size:21px;font-weight:800}.date{font-size:18px;font-weight:800}.small{font-size:16px}.tiny{font-size:14px}.rail{stroke:#1f2933;stroke-width:5;stroke-linecap:round}.lane{stroke:#d8d2c5;stroke-width:2}.iface{fill:#216869}.business{fill:#8f5d46}.platform{fill:#4f5f9f}.gatefill{fill:#fff4e8;stroke:#8f5d46;stroke-width:2}.card{fill:#fffdf7;stroke:#d8d2c5;stroke-width:2}.blocked{fill:#8f2f2a;font-family:Arial,Helvetica,sans-serif}.src{fill:#216869;font-family:Arial,Helvetica,sans-serif;font-size:14px;font-weight:700} </style> <rect class="bg" width="1400" height="760"/> <text x="70" y="70" class="ink title">ChatGPT: From Interface Event To Business Surface</text> <text x="70" y="108" class="muted subtitle">Chapter 7 chronology. Source spine:,,,,,,,,, /014/015.</text> <text x="70" y="138" class="muted small">Read left to right: public chat box, paid reliability tier, tools, enterprise administration, configurable assistants, multimodal assistant frame.</text> <text x="70" y="202" class="muted small">Interface</text> <text x="70" y="355" class="muted small">Business / platform surface</text> <line x1="120" y1="220" x2="1165" y2="220" class="lane"/> <line x1="120" y1="375" x2="1165" y2="375" class="lane"/> <line x1="120" y1="300" x2="1165" y2="300" class="rail"/> <g> <circle cx="120" cy="220" r="15" class="iface"/> <line x1="120" y1="235" x2="120" y2="300" stroke="#216869" stroke-width="3"/> <rect x="74" y="238" width="168" height="82" rx="8" class="card"/> <text x="94" y="264" class="ink date">2022-11-30</text> <text x="94" y="290" class="ink label">ChatGPT</text> <text x="94" y="312" class="src"></text> </g> <g> <circle cx="295" cy="375" r="15" class="business"/> <line x1="295" y1="300" x2="295" y2="360" stroke="#8f5d46" stroke-width="3"/> <rect x="222" y="393" width="185" height="92" rx="8" class="card"/> <text x="242" y="419" class="ink date">2023-02-01</text> <text x="242" y="445" class="ink label">Plus</text> <text x="242" y="467" class="muted tiny">$20/month launch tier</text> <text x="242" y="486" class="src"></text> </g> <g> <circle cx="470" cy="375" r="15" class="platform"/> <line x1="470" y1="300" x2="470" y2="360" stroke="#4f5f9f" stroke-width="3"/> <rect x="395" y="393" width="185" height="92" rx="8" class="card"/> <text x="415" y="419" class="ink date">2023-03-23</text> <text x="415" y="445" class="ink label">Plugins</text> <text x="415" y="467" class="muted tiny">Tools and services</text> <text x="415" y="486" class="src"></text> </g> <g> <circle cx="650" cy="375" r="15" class="business"/> <line x1="650" y1="300" x2="650" y2="360" stroke="#8f5d46" stroke-width="3"/> <rect x="572" y="393" width="220" height="110" rx="8" class="card"/> <text x="592" y="419" class="ink date">2023-08-28</text> <text x="592" y="445" class="ink label">Enterprise</text> <text x="592" y="467" class="muted tiny">Release-note entry</text> <text x="592" y="486" class="src"></text> <text x="592" y="505" class="blocked tiny">original page blocked</text> </g> <g> <circle cx="835" cy="375" r="15" class="platform"/> <line x1="835" y1="300" x2="835" y2="360" stroke="#4f5f9f" stroke-width="3"/> <rect x="767" y="393" width="174" height="92" rx="8" class="card"/> <text x="787" y="419" class="ink date">2023-11-06</text> <text x="787" y="445" class="ink label">GPTs</text> <text x="787" y="467" class="muted tiny">Configured assistants</text> <text x="787" y="486" class="src"></text> </g> <g> <circle cx="1015" cy="220" r="15" class="iface"/> <line x1="1015" y1="235" x2="1015" y2="300" stroke="#216869" stroke-width="3"/> <rect x="925" y="238" width="222" height="102" rx="8" class="card"/> <text x="945" y="264" class="ink date">2024-05-13</text> <text x="945" y="290" class="ink label">GPT-4o</text> <text x="945" y="312" class="muted tiny">Multimodal assistant frame</text> <text x="945" y="331" class="src"></text> </g> <rect x="188" y="560" width="950" height="92" rx="8" class="gatefill"/> <text x="220" y="591" class="ink label">Blocked lane: adoption, public reception, named customers, productivity</text> <text x="220" y="621" class="blocked small">remains active. Do not plot adoption totals, customer-productivity percentages, named-customer uptake, revenue, or public-reception quantities here.</text> <text x="220" y="646" class="src">Permission table: data/chatgpt_productization_quote_table_i0040.tsv. Timeline rows: data/chatgpt_interface_business_timeline_i0046.tsv.</text> <rect x="1185" y="214" width="130" height="164" rx="8" fill="#eef5f3" stroke="#216869" stroke-width="2"/> <circle cx="1210" cy="248" r="8" class="iface"/><text x="1230" y="254" class="muted tiny">Interface</text> <circle cx="1210" cy="294" r="8" class="business"/><text x="1230" y="300" class="muted tiny">Business</text> <circle cx="1210" cy="340" r="8" class="platform"/><text x="1230" y="346" class="muted tiny">Platform</text> <text x="70" y="710" class="muted tiny">Caption: Figure 7.x - ChatGPT interface-to-business timeline. The figure supports chronology and product-surface interpretation only; blocked market and productivity claims require separate evidence.</text>
</svg>