<svg xmlns="http://www.w3.org/2000/svg" width="1200" height="760" viewBox="0 0 1200 760" role="img" aria-labelledby="title desc"> <title id="title">Memorization and Contamination Blocker Map</title> <desc id="desc">A Chapter 17 map separating duplication, benchmark contamination, memorization, extraction, and blocked prevalence or legal claims.</desc> <style>.bg{fill:#f7f4ee}.ink{fill:#1f2933;font-family:Arial,Helvetica,sans-serif}.muted{fill:#5d6470;font-family:Arial,Helvetica,sans-serif}.title{font-size:36px;font-weight:800}.sub{font-size:18px}.label{font-size:20px;font-weight:800}.small{font-size:15px}.tiny{font-size:12px}.card{fill:#fffdf7;stroke:#c8c1b5;stroke-width:2}.data{fill:#e8f5ef;stroke:#0f8b6f;stroke-width:3}.risk{fill:#fff0ec;stroke:#c2412d;stroke-width:3}.brass{fill:#fff3d8;stroke:#b7791f;stroke-width:3}.model{fill:#e7efff;stroke:#2563eb;stroke-width:3}.line{fill:none;stroke:#1f2933;stroke-width:4;marker-end:url(#arrow)} </style> <defs><marker id="arrow" markerWidth="12" markerHeight="12" refX="10" refY="6" orient="auto"><path d="M0,0 L12,6 L0,12 Z" fill="#1f2933"/></marker></defs> <rect class="bg" width="1200" height="760"/> <text class="ink title" x="58" y="72">Memorization and Contamination Blocker Map</text> <text class="muted sub" x="58" y="108">The same data echo can affect training, benchmarks, privacy, and trust, but exact prevalence remains blocked.</text> <rect class="data" x="90" y="180" width="230" height="110" rx="8"/><text class="ink label" x="122" y="218">Duplicate text</text><text class="muted small" x="122" y="248">mirrors, reposts,</text><text class="muted small" x="122" y="270">copied code/docs</text> <rect class="brass" x="380" y="180" width="230" height="110" rx="8"/><text class="ink label" x="415" y="218">Benchmark echo</text><text class="muted small" x="415" y="248">test items or near-</text><text class="muted small" x="415" y="270">duplicates in corpus</text> <rect class="model" x="670" y="180" width="230" height="110" rx="8"/><text class="ink label" x="710" y="218">Memorization</text><text class="muted small" x="710" y="248">some sequences become</text><text class="muted small" x="710" y="270">reproducible</text> <rect class="risk" x="960" y="180" width="150" height="110" rx="8"/><text class="ink label" x="995" y="218">Extract</text><text class="muted small" x="990" y="248">prompt can elicit</text><text class="muted small" x="990" y="270">training-like text</text> <path class="line" d="M320 235 H373"/><path class="line" d="M610 235 H663"/><path class="line" d="M900 235 H953"/> <rect class="card" x="105" y="405" width="260" height="110" rx="8"/><text class="ink label" x="135" y="443">Allowed</text><text class="muted small" x="135" y="472">deduplication, contamination,</text><text class="muted small" x="135" y="494">and memorization are risks</text> <rect class="risk" x="470" y="405" width="260" height="110" rx="8"/><text class="ink label" x="500" y="443">Blocked</text><text class="muted small" x="500" y="472">exact model leakage rates</text><text class="muted small" x="500" y="494">or benchmark prevalence</text> <rect class="risk" x="835" y="405" width="260" height="110" rx="8"/><text class="ink label" x="865" y="443">Blocked</text><text class="muted small" x="865" y="472">legal conclusions or</text><text class="muted small" x="865" y="494">solved privacy claims</text> <rect class="card" x="105" y="625" width="990" height="58" rx="8"/> <text class="muted tiny" x="130" y="675">Figure. Sources:. Notes: /009/010.</text>
</svg>