<svg xmlns=" width="1200" height="780" viewBox="0 0 1200 780" role="img" aria-labelledby="title desc"> <title id="title">Figure 24.1 - From Next Token To Computing Stack</title> <desc id="desc">Layered synthesis map showing next-token prediction surrounded by data, model, training, products, tools, infrastructure, economics, and trust, with a blocker note that the map is not a proof that every layer was solved.</desc> <rect width="1200" height="780" fill="#f7f3ea"/> <text x="70" y="72" font-family="Arial, sans-serif" font-size="34" font-weight="700" fill="#1f2933">From Next Token To Computing Stack</text> <text x="72" y="108" font-family="Arial, sans-serif" font-size="17" fill="#52606d">A synthesis map, not a causal proof that every layer was solved or equally mature by May 24, 2026.</text> <circle cx="600" cy="390" r="250" fill="#d9e8e2" stroke="#52606d" stroke-width="3"/> <circle cx="600" cy="390" r="176" fill="#eef0d4" stroke="#52606d" stroke-width="3"/> <circle cx="600" cy="390" r="98" fill="#fff7d6" stroke="#b7791f" stroke-width="4"/> <text x="600" y="376" text-anchor="middle" font-family="Arial, sans-serif" font-size="27" font-weight="700" fill="#1f2933">NEXT</text> <text x="600" y="408" text-anchor="middle" font-family="Arial, sans-serif" font-size="27" font-weight="700" fill="#1f2933">TOKEN</text> <text x="600" y="438" text-anchor="middle" font-family="Arial, sans-serif" font-size="15" fill="#52606d">mechanism, not mind</text> <g font-family="Arial, sans-serif" font-size="19" font-weight="700" fill="#1f2933"> <text x="600" y="173" text-anchor="middle">data + tokenization</text> <text x="760" y="245" text-anchor="middle">attention + scale</text> <text x="817" y="395" text-anchor="middle">training + alignment</text> <text x="760" y="548" text-anchor="middle">interfaces + products</text> <text x="600" y="620" text-anchor="middle">tools + code + agents</text> <text x="440" y="548" text-anchor="middle">chips + datacenters</text> <text x="383" y="395" text-anchor="middle">pricing + markets</text> <text x="440" y="245" text-anchor="middle">evals + trust</text> </g> <g stroke="#52606d" stroke-width="2"> <line x1="600" y1="292" x2="600" y2="196"/> <line x1="675" y1="316" x2="742" y2="260"/> <line x1="698" y1="390" x2="784" y2="390"/> <line x1="675" y1="464" x2="742" y2="530"/> <line x1="600" y1="488" x2="600" y2="596"/> <line x1="525" y1="464" x2="458" y2="530"/> <line x1="502" y1="390" x2="416" y2="390"/> <line x1="525" y1="316" x2="458" y2="260"/> </g> <rect x="70" y="650" width="1060" height="66" rx="8" fill="#1f2933"/> <text x="92" y="681" font-family="Arial, sans-serif" font-size="19" font-weight="700" fill="#ffffff">Blocked leap</text>  <text x="92" y="707" font-family="Arial, sans-serif" font-size="14" fill="#d9e8e2">Source role: cross-book synthesis from Chapter 24 scaffold rows through.</text>
</svg>